<svg width="18" height="21" viewBox="0 0 18 21" fill="none" xmlns="http://www.w3.org/2000/svg">
<path d="M16.4966 9.40001H3.70239L7.61832 3.29601C7.80142 3.01011 7.88952 2.64152 7.86322 2.27132C7.83692 1.90112 7.69838 1.55965 7.47808 1.32201C7.25777 1.08438 6.97376 0.970053 6.6885 1.00418C6.40325 1.03832 6.14012 1.21811 5.95701 1.50401L0.56318 9.90401C0.526891 9.97083 0.49444 10.041 0.466091 10.114C0.466091 10.184 0.466091 10.226 0.390577 10.296C0.341681 10.4565 0.316079 10.6274 0.315063 10.8C0.316079 10.9726 0.341681 11.1435 0.390577 11.304C0.390577 11.374 0.390577 11.416 0.466091 11.486C0.49444 11.559 0.526891 11.6292 0.56318 11.696L5.95701 20.096C6.05844 20.254 6.18546 20.3811 6.32902 20.4683C6.47259 20.5554 6.62918 20.6003 6.78767 20.6C7.03972 20.6007 7.28399 20.4867 7.47808 20.278C7.58731 20.1605 7.67761 20.0161 7.74379 19.8533C7.80997 19.6904 7.85075 19.5121 7.86377 19.3288C7.8768 19.1454 7.86183 18.9605 7.81971 18.7847C7.77759 18.6088 7.70915 18.4455 7.61832 18.304L3.70239 12.2H16.4966C16.7827 12.2 17.0571 12.0525 17.2594 11.79C17.4617 11.5274 17.5753 11.1713 17.5753 10.8C17.5753 10.4287 17.4617 10.0726 17.2594 9.81006C17.0571 9.54751 16.7827 9.40001 16.4966 9.40001Z" fill="#193059"/>
</svg>
