<svg width="25" height="25" viewBox="0 0 25 25" fill="none" xmlns="http://www.w3.org/2000/svg">
<path d="M4.4855 0.469482C3.548 0.469482 2.6489 0.789102 1.98599 1.35803C1.32308 1.92695 0.950661 2.69858 0.950661 3.50316V21.7053C0.950661 22.5098 1.32308 23.2815 1.98599 23.8504C2.6489 24.4193 3.548 24.7389 4.4855 24.7389H23.2201C23.5014 24.7389 23.7711 24.6431 23.97 24.4724C24.1688 24.3017 24.2806 24.0702 24.2806 23.8288C24.2806 23.5875 24.1688 23.356 23.97 23.1853C23.7711 23.0146 23.5014 22.9187 23.2201 22.9187H4.4855C4.1105 22.9187 3.75086 22.7909 3.48569 22.5633C3.22053 22.3357 3.07156 22.0271 3.07156 21.7053H23.2201C23.5014 21.7053 23.7711 21.6094 23.97 21.4387C24.1688 21.268 24.2806 21.0365 24.2806 20.7952V3.50316C24.2806 3.10478 24.1891 2.71029 24.0115 2.34222C23.8339 1.97416 23.5735 1.63973 23.2452 1.35803C22.917 1.07632 22.5273 0.852865 22.0985 0.700408C21.6696 0.547951 21.2099 0.469482 20.7457 0.469482H4.4855ZM6.6064 4.1099H17.9179C18.2929 4.1099 18.6525 4.23775 18.9177 4.46532C19.1828 4.69289 19.3318 5.00154 19.3318 5.32337V6.53685C19.3318 6.85868 19.1828 7.16733 18.9177 7.3949C18.6525 7.62247 18.2929 7.75032 17.9179 7.75032H6.6064C6.2314 7.75032 5.87176 7.62247 5.6066 7.3949C5.34143 7.16733 5.19246 6.85868 5.19246 6.53685V5.32337C5.19246 5.00154 5.34143 4.69289 5.6066 4.46532C5.87176 4.23775 6.2314 4.1099 6.6064 4.1099Z" fill="#193059"/>
</svg>
