<svg width="22" height="23" viewBox="0 0 22 23" fill="none" xmlns="http://www.w3.org/2000/svg">
<path d="M4.0614 9.2906C4.0614 9.11108 4.13272 8.93891 4.25966 8.81197C4.3866 8.68502 4.55877 8.61371 4.7383 8.61371H11.5072C11.6868 8.61371 11.8589 8.68502 11.9859 8.81197C12.1128 8.93891 12.1841 9.11108 12.1841 9.2906C12.1841 9.47013 12.1128 9.6423 11.9859 9.76924C11.8589 9.89618 11.6868 9.9675 11.5072 9.9675H4.7383C4.55877 9.9675 4.3866 9.89618 4.25966 9.76924C4.13272 9.6423 4.0614 9.47013 4.0614 9.2906ZM4.0614 13.352C4.0614 13.1725 4.13272 13.0003 4.25966 12.8733C4.3866 12.7464 4.55877 12.6751 4.7383 12.6751H11.5072C11.6868 12.6751 11.8589 12.7464 11.9859 12.8733C12.1128 13.0003 12.1841 13.1725 12.1841 13.352C12.1841 13.5315 12.1128 13.7037 11.9859 13.8306C11.8589 13.9576 11.6868 14.0289 11.5072 14.0289H4.7383C4.55877 14.0289 4.3866 13.9576 4.25966 13.8306C4.13272 13.7037 4.0614 13.5315 4.0614 13.352ZM4.7383 16.7365C4.55877 16.7365 4.3866 16.8078 4.25966 16.9347C4.13272 17.0617 4.0614 17.2338 4.0614 17.4133C4.0614 17.5929 4.13272 17.765 4.25966 17.892C4.3866 18.0189 4.55877 18.0902 4.7383 18.0902H11.5072C11.6868 18.0902 11.8589 18.0189 11.9859 17.892C12.1128 17.765 12.1841 17.5929 12.1841 17.4133C12.1841 17.2338 12.1128 17.0617 11.9859 16.9347C11.8589 16.8078 11.6868 16.7365 11.5072 16.7365H4.7383Z" fill="#193059"/>
<path d="M2.70758 0.490967C1.98949 0.490967 1.3008 0.776229 0.793032 1.284C0.285262 1.79177 0 2.48045 0 3.19855L0 19.444C0 20.1621 0.285262 20.8508 0.793032 21.3586C1.3008 21.8664 1.98949 22.1516 2.70758 22.1516H18.9531C19.6712 22.1516 20.3598 21.8664 20.8676 21.3586C21.3754 20.8508 21.6607 20.1621 21.6607 19.444V3.19855C21.6607 2.48045 21.3754 1.79177 20.8676 1.284C20.3598 0.776229 19.6712 0.490967 18.9531 0.490967L2.70758 0.490967ZM18.9531 1.84476C19.3121 1.84476 19.6565 1.98739 19.9103 2.24127C20.1642 2.49516 20.3069 2.8395 20.3069 3.19855V4.55234H1.35379V3.19855C1.35379 2.8395 1.49642 2.49516 1.75031 2.24127C2.00419 1.98739 2.34853 1.84476 2.70758 1.84476H18.9531ZM20.3069 5.90613V19.444C20.3069 19.8031 20.1642 20.1474 19.9103 20.4013C19.6565 20.6552 19.3121 20.7978 18.9531 20.7978H16.2455V5.90613H20.3069ZM14.8917 5.90613V20.7978H2.70758C2.34853 20.7978 2.00419 20.6552 1.75031 20.4013C1.49642 20.1474 1.35379 19.8031 1.35379 19.444V5.90613H14.8917Z" fill="#193059"/>
</svg>

