<svg width="24" height="24" viewBox="0 0 24 24" fill="none" xmlns="http://www.w3.org/2000/svg">
<path d="M4 7H17.79C18.0694 7.00001 18.3457 7.05857 18.6011 7.17191C18.8565 7.28524 19.0854 7.45083 19.2729 7.65801C19.4603 7.86519 19.6023 8.10936 19.6897 8.37478C19.777 8.64019 19.8078 8.92097 19.78 9.199L19.18 15.199C19.1307 15.6925 18.8997 16.1501 18.532 16.4829C18.1642 16.8157 17.686 17 17.19 17H7.64C7.17747 17.0002 6.72918 16.84 6.37144 16.5469C6.01371 16.2537 5.76866 15.8456 5.678 15.392L4 7Z" stroke="#193059" stroke-width="2" stroke-linejoin="round"/>
<path d="M16 21H18M5 7L4.19 3.757C4.13583 3.54075 4.01095 3.34881 3.83521 3.21166C3.65946 3.0745 3.44293 3.00001 3.22 3H2L5 7ZM8 21H10H8Z" stroke="#193059" stroke-width="2" stroke-linecap="round" stroke-linejoin="round"/>
</svg>
