<svg width="10" height="10" viewBox="0 0 10 10" fill="none" xmlns="http://www.w3.org/2000/svg">
<path d="M7.5 4.58334C7.64167 4.58334 7.77917 4.59584 7.91667 4.61667V1.66667C7.91667 1.20834 7.54167 0.833336 7.08333 0.833336H2.08333C1.625 0.833336 1.25 1.20834 1.25 1.66667V8.33334C1.25 8.79167 1.625 9.16667 2.08333 9.16667H5.10833C4.80313 8.72963 4.62362 8.21725 4.58935 7.68529C4.55508 7.15333 4.66736 6.62216 4.91397 6.14957C5.16057 5.67698 5.53206 5.28107 5.98802 5.00492C6.44398 4.72877 6.96694 4.58295 7.5 4.58334ZM2.91667 4.58334V1.66667H5V4.58334L3.95833 3.95834L2.91667 4.58334Z" fill="#111111"/>
<path d="M7.5 5.41666C6.35 5.41666 5.41666 6.35 5.41666 7.5C5.41666 8.65 6.35 9.58333 7.5 9.58333C8.65 9.58333 9.58333 8.65 9.58333 7.5C9.58333 6.35 8.65 5.41666 7.5 5.41666ZM6.97916 8.54166V6.45833L8.64583 7.5L6.97916 8.54166Z" fill="#111111"/>
</svg>
