<svg width="9" height="8" viewBox="0 0 9 8" fill="none" xmlns="http://www.w3.org/2000/svg">
<path d="M0.25 0.875V1.5H7.125V6.5H2.75V7.125H8.375V6.5H7.75V0.875H0.25ZM1.50062 1.8125C1.1694 1.81365 0.852063 1.9457 0.617793 2.17985C0.383522 2.41401 0.251318 2.73128 0.25 3.0625C0.25 3.74969 0.81375 4.3125 1.50062 4.3125C1.83168 4.31118 2.1488 4.17904 2.38283 3.94489C2.61687 3.71074 2.74885 3.39356 2.75 3.0625C2.75 2.37594 2.18687 1.8125 1.50062 1.8125ZM3.375 2.125V2.75H4.9375V2.125H3.375ZM5.5625 2.125V2.75H6.5V2.125H5.5625ZM1.50062 2.4375C1.84875 2.4375 2.125 2.71344 2.125 3.0625C2.125 3.4125 1.84906 3.6875 1.50062 3.6875C1.15062 3.6875 0.875 3.4125 0.875 3.0625C0.875 2.71344 1.15094 2.4375 1.50062 2.4375ZM3.375 3.375V4H6.5V3.375H3.375ZM0.25 4.625V7.125H0.875V5.25H1.8125V7.125H2.4375V5.45563L3.0825 5.79688C3.26531 5.89375 3.485 5.89344 3.6675 5.79688V5.7975L4.77063 5.21406L4.47906 4.66094L3.37562 5.24438L2.40812 4.73375C2.2731 4.66241 2.12271 4.62509 1.97 4.625H0.25Z" fill="#111111"/>
</svg>
