<svg width="28" height="18" viewBox="0 0 28 18" fill="none" xmlns="http://www.w3.org/2000/svg">
<path d="M23.8963 3.05147C22.8783 1.5953 21.0119 0.867218 18.9758 0.867218H8.7955C6.75944 0.867218 4.89304 1.5953 3.87501 3.05147C-0.0274482 8.14806 -0.875809 15.8657 1.83895 17.4675C4.5537 19.0693 10.6619 12.0797 13.8857 12.0797C17.1094 12.0797 23.048 19.0693 25.9324 17.4675C28.6471 15.8657 27.7988 8.14806 23.8963 3.05147ZM10.4922 8.14806H8.7955V9.60422H7.09878V8.14806H5.40206V6.69189H7.09878V5.23572H8.7955V6.69189H10.4922V8.14806ZM19.6545 8.87614C19.6545 9.60422 18.9758 10.1867 18.1275 10.1867C17.2791 10.1867 16.6004 9.60422 16.6004 8.87614C16.6004 8.14806 17.2791 7.56559 18.1275 7.56559C18.9758 7.56559 19.6545 8.14806 19.6545 8.87614ZM22.8783 5.9638C22.8783 6.69189 22.1996 7.27435 21.3512 7.27435C20.5029 7.27435 19.8242 6.69189 19.8242 5.9638C19.8242 5.23572 20.5029 4.65325 21.3512 4.65325C22.1996 4.65325 22.8783 5.23572 22.8783 5.9638Z" fill="#193059"/>
</svg>
