<svg width="31" height="25" viewBox="0 0 31 25" fill="none" xmlns="http://www.w3.org/2000/svg">
<path d="M29.6777 12.3467L16.0277 0.640449C15.9294 0.555935 15.8127 0.488885 15.6841 0.443137C15.5556 0.397388 15.4179 0.37384 15.2787 0.37384C15.1396 0.37384 15.0018 0.397388 14.8733 0.443137C14.7448 0.488885 14.6281 0.555935 14.5298 0.640449L0.879805 12.3467C0.482136 12.688 0.25679 13.1515 0.25679 13.635C0.25679 14.639 1.20788 15.4552 2.37769 15.4552H3.81593V23.8083C3.81593 24.3117 4.28982 24.7184 4.87638 24.7184H13.1578V18.3477H16.8694V24.7184H25.6811C26.2677 24.7184 26.7415 24.3117 26.7415 23.8083V15.4552H28.1798C28.7431 15.4552 29.2833 15.2647 29.681 14.9206C30.5061 14.2095 30.5061 13.0577 29.6777 12.3467Z" fill="#193059"/>
</svg>
