<svg width="40" height="40" viewBox="0 0 40 40" fill="none" xmlns="http://www.w3.org/2000/svg">
<path d="M2.85714 38.5714C2.85714 38.9583 2.71577 39.2931 2.43304 39.5759C2.1503 39.8586 1.81548 40 1.42857 40C1.04167 40 0.706845 39.8586 0.424107 39.5759C0.141369 39.2931 0 38.9583 0 38.5714C0 38.1845 0.141369 37.8497 0.424107 37.567C0.706845 37.2842 1.04167 37.1428 1.42857 37.1428C1.81548 37.1428 2.1503 37.2842 2.43304 37.567C2.71577 37.8497 2.85714 38.1845 2.85714 38.5714ZM7.14286 34.2857C7.14286 34.6726 7.00149 35.0074 6.71875 35.2902C6.43601 35.5729 6.10119 35.7143 5.71429 35.7143C5.32738 35.7143 4.99256 35.5729 4.70982 35.2902C4.42708 35.0074 4.28571 34.6726 4.28571 34.2857C4.28571 33.8988 4.42708 33.564 4.70982 33.2812C4.99256 32.9985 5.32738 32.8571 5.71429 32.8571C6.10119 32.8571 6.43601 32.9985 6.71875 33.2812C7.00149 33.564 7.14286 33.8988 7.14286 34.2857ZM8.14732 26.1384L13.8616 31.8527L11.8527 33.8616L6.13839 28.1473L8.14732 26.1384ZM15.7143 25.7143C15.7143 26.1012 15.5729 26.436 15.2902 26.7187C15.0074 27.0015 14.6726 27.1429 14.2857 27.1429C13.8988 27.1429 13.564 27.0015 13.2812 26.7187C12.9985 26.436 12.8571 26.1012 12.8571 25.7143C12.8571 25.3274 12.9985 24.9926 13.2812 24.7098C13.564 24.4271 13.8988 24.2857 14.2857 24.2857C14.6726 24.2857 15.0074 24.4271 15.2902 24.7098C15.5729 24.9926 15.7143 25.3274 15.7143 25.7143ZM31.4955 18.5714C31.4955 19.4494 31.41 20.2567 31.2388 20.9933C31.0677 21.7299 30.7887 22.4256 30.4018 23.0804C30.0149 23.7351 29.6875 24.2373 29.4196 24.587C29.1518 24.9367 28.7574 25.4167 28.2366 26.0268C27.7753 26.5476 27.4368 26.9494 27.221 27.2321C27.0052 27.5149 26.756 27.8869 26.4732 28.3482C26.1905 28.8095 25.9933 29.2857 25.8817 29.7768C25.7701 30.2679 25.7143 30.8184 25.7143 31.4286C25.7143 33.7946 24.8772 35.8147 23.2031 37.4888C21.529 39.1629 19.5089 40 17.1429 40C16.756 40 16.4211 39.8586 16.1384 39.5759C15.8557 39.2931 15.7143 38.9583 15.7143 38.5714C15.7143 38.1845 15.8557 37.8497 16.1384 37.567C16.4211 37.2842 16.756 37.1428 17.1429 37.1428C18.7202 37.1428 20.067 36.5848 21.183 35.4687C22.2991 34.3527 22.8571 33.0059 22.8571 31.4286C22.8571 30.5804 22.9427 29.7954 23.1138 29.0737C23.285 28.3519 23.5603 27.6748 23.9397 27.0424C24.3192 26.41 24.6429 25.9152 24.9107 25.558C25.1786 25.2009 25.5655 24.7321 26.0714 24.1518C26.6667 23.4673 27.1094 22.9315 27.3996 22.5446C27.6897 22.1577 27.9688 21.6034 28.2366 20.8817C28.5045 20.16 28.6384 19.3899 28.6384 18.5714C28.6384 15.8184 27.66 13.4635 25.7031 11.5067C23.7463 9.54984 21.3914 8.57142 18.6384 8.57142C15.8854 8.57142 13.5305 9.54984 11.5737 11.5067C9.61682 13.4635 8.63839 15.8184 8.63839 18.5714C8.63839 18.9583 8.49702 19.2931 8.21429 19.5759C7.93155 19.8586 7.59673 20 7.20982 20C6.82292 20 6.4881 19.8586 6.20536 19.5759C5.92262 19.2931 5.78125 18.9583 5.78125 18.5714C5.78125 16.8304 6.11979 15.1674 6.79688 13.5826C7.47396 11.9978 8.38914 10.6287 9.54241 9.47544C10.6957 8.32217 12.0647 7.40699 13.6496 6.7299C15.2344 6.05282 16.8973 5.71428 18.6384 5.71428C20.3795 5.71428 22.0424 6.05282 23.6272 6.7299C25.2121 7.40699 26.5811 8.32217 27.7344 9.47544C28.8876 10.6287 29.8028 11.9978 30.4799 13.5826C31.157 15.1674 31.4955 16.8304 31.4955 18.5714ZM20 21.4286C20 21.8155 19.8586 22.1503 19.5759 22.433C19.2932 22.7158 18.9583 22.8571 18.5714 22.8571C18.1845 22.8571 17.8497 22.7158 17.567 22.433C17.2842 22.1503 17.1429 21.8155 17.1429 21.4286C17.1429 21.0417 17.2842 20.7068 17.567 20.4241C17.8497 20.1414 18.1845 20 18.5714 20C18.9583 20 19.2932 20.1414 19.5759 20.4241C19.8586 20.7068 20 21.0417 20 21.4286ZM26.4286 18.5714C26.4286 18.9583 26.2872 19.2931 26.0045 19.5759C25.7217 19.8586 25.3869 20 25 20C24.6131 20 24.2783 19.8586 23.9955 19.5759C23.7128 19.2931 23.5714 18.9583 23.5714 18.5714C23.5714 17.1875 23.0841 16.0082 22.1094 15.0335C21.1347 14.0588 19.9554 13.5714 18.5714 13.5714C17.2024 13.5714 16.0268 14.0588 15.0446 15.0335C14.0625 16.0082 13.5714 17.1875 13.5714 18.5714C13.5714 18.9583 13.4301 19.2931 13.1473 19.5759C12.8646 19.8586 12.5298 20 12.1429 20C11.756 20 11.4211 19.8586 11.1384 19.5759C10.8557 19.2931 10.7143 18.9583 10.7143 18.5714C10.7143 16.3988 11.4807 14.5461 13.0134 13.0134C14.5461 11.4806 16.3988 10.7143 18.5714 10.7143C20.744 10.7143 22.5967 11.4806 24.1295 13.0134C25.6622 14.5461 26.4286 16.3988 26.4286 18.5714ZM35.2232 12.1205C35.372 12.4926 35.3646 12.8571 35.2009 13.2143C35.0372 13.5714 34.7693 13.8244 34.3973 13.9732C34.2634 14.0327 34.0923 14.0625 33.8839 14.0625C33.6012 14.0625 33.3371 13.9806 33.0915 13.817C32.846 13.6533 32.6711 13.4301 32.567 13.1473C31.5551 10.4985 29.8884 8.30357 27.567 6.56249C27.2545 6.3244 27.0685 6.0119 27.0089 5.62499C26.9494 5.23809 27.0387 4.88839 27.2768 4.57589C27.5298 4.26339 27.8497 4.07737 28.2366 4.01785C28.6235 3.95833 28.9732 4.04761 29.2857 4.28571C32.0089 6.3244 33.9881 8.93601 35.2232 12.1205ZM39.9107 10.3125C40.0446 10.6845 40.0335 11.0491 39.8772 11.4062C39.721 11.7634 39.4568 12.0164 39.0848 12.1652C38.9211 12.2247 38.75 12.2545 38.5714 12.2545C37.9167 12.2545 37.4702 11.9494 37.2321 11.3393C35.8631 7.79761 33.6533 4.87351 30.6027 2.56696C30.2753 2.32886 30.0856 2.01636 30.0335 1.62946C29.9814 1.24255 30.0744 0.89285 30.3125 0.58035C30.5506 0.252969 30.8631 0.0632371 31.25 0.0111538C31.6369 -0.0409295 31.9866 0.0520764 32.2991 0.290172C35.7961 2.89434 38.3333 6.23511 39.9107 10.3125Z" fill="black" fill-opacity="0.8"/>
</svg>
