<svg width="15" height="13" viewBox="0 0 15 13" fill="none" xmlns="http://www.w3.org/2000/svg">
<path d="M11.875 2.125C14.3675 4.505 14.3825 8.51063 11.875 10.875M1.25 8.34938V4.65C1.25 4.29125 1.53 4 1.875 4H4.11625C4.19896 3.99971 4.28075 3.98267 4.35669 3.9499C4.43264 3.91714 4.50116 3.86934 4.55813 3.80938L6.43313 1.69188C6.82688 1.28188 7.5 1.5725 7.5 2.15188V10.8481C7.5 11.4319 6.81875 11.72 6.4275 11.3019L4.55875 9.19625C4.50162 9.13458 4.43241 9.08533 4.35542 9.05157C4.27843 9.0178 4.19532 9.00025 4.11125 9H1.875C1.53 9 1.25 8.70875 1.25 8.34938ZM10 4.3125C10.8331 5.42375 10.8331 7.57625 10 8.6875V4.3125Z" stroke="#111111" stroke-width="2" stroke-linecap="round" stroke-linejoin="round"/>
</svg>
