<svg width="29" height="47" viewBox="0 0 29 47" fill="none" xmlns="http://www.w3.org/2000/svg">
<path d="M17.7536 33.3985V44.3529C17.7537 44.5424 17.6791 44.7244 17.5462 44.8595C17.4132 44.9946 17.2324 45.072 17.0429 45.0749H11.8308C11.6413 45.072 11.4605 44.9946 11.3275 44.8595C11.1946 44.7244 11.12 44.5424 11.1201 44.3529V33.3985M14.4369 1.07672C16.7138 1.07672 18.8975 1.98124 20.5076 3.59129C22.1176 5.20135 23.0221 7.38505 23.0221 9.66201V20.2893C23.0221 22.5662 22.1176 24.7499 20.5076 26.36C18.8975 27.97 16.7138 28.8746 14.4369 28.8746V28.8746C12.1599 28.8746 9.97619 27.97 8.36614 26.36C6.75608 24.7499 5.85156 22.5662 5.85156 20.2893V9.66201C5.85156 7.38505 6.75608 5.20135 8.36614 3.59129C9.97619 1.98124 12.1599 1.07672 14.4369 1.07672V1.07672Z" stroke="#193059" stroke-width="2" stroke-linecap="round" stroke-linejoin="round"/>
<path d="M1.15839 22.8389C1.76878 25.9115 3.42585 28.6773 5.84717 30.6649C8.26849 32.6526 11.3042 33.739 14.4368 33.739C17.5695 33.739 20.6051 32.6526 23.0265 30.6649C25.4478 28.6773 27.1049 25.9115 27.7152 22.8389" stroke="#193059" stroke-width="2" stroke-linecap="round" stroke-linejoin="round"/>
</svg>
