<svg width="15" height="13" viewBox="0 0 15 13" fill="none" xmlns="http://www.w3.org/2000/svg">
<path d="M13.75 4.625L10 8.375M13.75 8.375L10 4.625L13.75 8.375Z" stroke="#111111" stroke-width="2" stroke-linecap="round"/>
<path d="M1.25 8.34937V4.64999C1.25 4.29124 1.53 3.99999 1.875 3.99999H4.11625C4.19896 3.9997 4.28075 3.98266 4.35669 3.9499C4.43264 3.91713 4.50116 3.86933 4.55813 3.80937L6.43313 1.69187C6.82688 1.28187 7.5 1.57249 7.5 2.15187V10.8481C7.5 11.4319 6.81875 11.72 6.4275 11.3019L4.55875 9.19624C4.50162 9.13457 4.43241 9.08532 4.35542 9.05156C4.27843 9.0178 4.19532 9.00024 4.11125 8.99999H1.875C1.53 8.99999 1.25 8.70874 1.25 8.34937Z" stroke="#111111" stroke-width="2" stroke-linecap="round" stroke-linejoin="round"/>
</svg>
