<svg width="36" height="28" viewBox="0 0 36 28" fill="none" xmlns="http://www.w3.org/2000/svg">
<path d="M34.25 0.289064H25.3125C23.3945 0.289064 21.5195 0.839845 19.9062 1.87891L18 3.10156L16.0938 1.87891C14.4821 0.840044 12.605 0.288039 10.6875 0.289064H1.75C1.05859 0.289064 0.5 0.847658 0.5 1.53906V23.7266C0.5 24.418 1.05859 24.9766 1.75 24.9766H10.6875C12.6055 24.9766 14.4805 25.5273 16.0938 26.5664L17.8281 27.6836C17.8789 27.7148 17.9375 27.7344 17.9961 27.7344C18.0547 27.7344 18.1133 27.7188 18.1641 27.6836L19.8984 26.5664C21.5156 25.5273 23.3945 24.9766 25.3125 24.9766H34.25C34.9414 24.9766 35.5 24.418 35.5 23.7266V1.53906C35.5 0.847658 34.9414 0.289064 34.25 0.289064ZM10.6875 22.1641H3.3125V3.10156H10.6875C12.0703 3.10156 13.4141 3.4961 14.5742 4.24219L16.4805 5.46484L16.75 5.64063V23.6875C14.8906 22.6875 12.8125 22.1641 10.6875 22.1641ZM32.6875 22.1641H25.3125C23.1875 22.1641 21.1094 22.6875 19.25 23.6875V5.64063L19.5195 5.46484L21.4258 4.24219C22.5859 3.4961 23.9297 3.10156 25.3125 3.10156H32.6875V22.1641ZM13.5039 8.10156H6.24609C6.09375 8.10156 5.96875 8.23438 5.96875 8.39453V10.1523C5.96875 10.3125 6.09375 10.4453 6.24609 10.4453H13.5C13.6523 10.4453 13.7773 10.3125 13.7773 10.1523V8.39453C13.7812 8.23438 13.6562 8.10156 13.5039 8.10156ZM22.2188 8.39453V10.1523C22.2188 10.3125 22.3437 10.4453 22.4961 10.4453H29.75C29.9023 10.4453 30.0273 10.3125 30.0273 10.1523V8.39453C30.0273 8.23438 29.9023 8.10156 29.75 8.10156H22.4961C22.3437 8.10156 22.2188 8.23438 22.2188 8.39453ZM13.5039 13.5703H6.24609C6.09375 13.5703 5.96875 13.7031 5.96875 13.8633V15.6211C5.96875 15.7812 6.09375 15.9141 6.24609 15.9141H13.5C13.6523 15.9141 13.7773 15.7812 13.7773 15.6211V13.8633C13.7812 13.7031 13.6562 13.5703 13.5039 13.5703ZM29.7539 13.5703H22.4961C22.3437 13.5703 22.2188 13.7031 22.2188 13.8633V15.6211C22.2188 15.7812 22.3437 15.9141 22.4961 15.9141H29.75C29.9023 15.9141 30.0273 15.7812 30.0273 15.6211V13.8633C30.0313 13.7031 29.9063 13.5703 29.7539 13.5703Z" fill="black"/>
</svg>
