<svg width="16" height="23" viewBox="0 0 16 23" fill="none" xmlns="http://www.w3.org/2000/svg">
<path d="M8.2998 0.125C4.15806 0.125 0.799805 5.22652 0.799805 11.5182C0.799805 17.8099 4.15806 22.9115 8.2998 22.9115C12.4415 22.9115 15.7998 17.8099 15.7998 11.5182C15.7998 5.22652 12.4415 0.125 8.2998 0.125ZM10.7122 11.6937L7.05594 15.7347C7.0359 15.7566 7.01227 15.7697 6.98766 15.7725C6.96304 15.7753 6.9384 15.7678 6.91642 15.7507C6.89445 15.7336 6.876 15.7076 6.86311 15.6757C6.85021 15.6437 6.84337 15.6069 6.84333 15.5694V7.49245C6.84325 7.45488 6.85002 7.41801 6.86289 7.38593C6.87576 7.35384 6.89422 7.3278 6.91624 7.31068C6.93826 7.29356 6.96296 7.28604 6.98762 7.28895C7.01228 7.29185 7.03593 7.30508 7.05594 7.32715L10.7122 11.3656C10.7295 11.3842 10.7436 11.4088 10.7533 11.4373C10.763 11.4659 10.7681 11.4975 10.7681 11.5297C10.7681 11.5618 10.763 11.5935 10.7533 11.622C10.7436 11.6506 10.7295 11.6751 10.7122 11.6937Z" fill="white"/>
</svg>
