<svg width="30" height="28" viewBox="0 0 30 28" fill="none" xmlns="http://www.w3.org/2000/svg">
<path d="M1.66667 7.77302V4.617C1.66667 3.77997 2.01786 2.97722 2.64298 2.38535C3.2681 1.79348 4.11595 1.46097 5 1.46097H8.33333L1.66667 7.77302ZM1.66667 20.3971V23.5532C1.66667 24.3902 2.01786 25.1929 2.64298 25.7848C3.2681 26.3767 4.11595 26.7092 5 26.7092H8.33333L1.66667 20.3971ZM21.6667 1.46097H25C25.8841 1.46097 26.7319 1.79348 27.357 2.38535C27.9821 2.97722 28.3333 3.77997 28.3333 4.617V7.77302L21.6667 1.46097ZM21.6667 26.7092H25C25.8841 26.7092 26.7319 26.3767 27.357 25.7848C27.9821 25.1929 28.3333 24.3902 28.3333 23.5532V20.3971L21.6667 26.7092ZM15 14.8741L21.6667 10.9291L15 14.8741ZM8.33333 10.9291L15 14.8741V21.9752L21.6667 18.0301V10.9291L15 6.98402L8.33333 10.9291Z" stroke="#262F56" stroke-width="2" stroke-linecap="round" stroke-linejoin="round"/>
</svg>
