<svg width="31" height="27" viewBox="0 0 31 27" fill="none" xmlns="http://www.w3.org/2000/svg">
<path d="M15.1645 0.804291C6.96587 0.804291 0.318169 6.50951 0.318169 13.5458C0.318169 20.582 6.96587 26.2872 15.1645 26.2872C23.3631 26.2872 30.0108 20.582 30.0108 13.5458C30.0108 6.50951 23.3631 0.804291 15.1645 0.804291ZM19.9398 13.742L12.7022 18.2612C12.6626 18.2857 12.6158 18.3003 12.5671 18.3035C12.5183 18.3066 12.4696 18.2982 12.4261 18.279C12.3826 18.2599 12.3461 18.2309 12.3205 18.1952C12.295 18.1594 12.2815 18.1183 12.2814 18.0764V9.04358C12.2812 9.00157 12.2946 8.96033 12.3201 8.92445C12.3456 8.88857 12.3821 8.85944 12.4257 8.8403C12.4693 8.82115 12.5182 8.81274 12.567 8.81599C12.6158 8.81924 12.6626 8.83403 12.7022 8.85872L19.9398 13.3751C19.974 13.3959 20.0019 13.4234 20.0212 13.4553C20.0404 13.4872 20.0505 13.5226 20.0505 13.5586C20.0505 13.5945 20.0404 13.6299 20.0212 13.6618C20.0019 13.6938 19.974 13.7212 19.9398 13.742Z" fill="#193059"/>
</svg>
