<svg width="13" height="13" viewBox="0 0 13 13" fill="none" xmlns="http://www.w3.org/2000/svg">
<path d="M1.5 4V2.75C1.5 2.41848 1.6317 2.10054 1.86612 1.86612C2.10054 1.6317 2.41848 1.5 2.75 1.5H4L1.5 4ZM1.5 9V10.25C1.5 10.5815 1.6317 10.8995 1.86612 11.1339C2.10054 11.3683 2.41848 11.5 2.75 11.5H4L1.5 9ZM9 1.5H10.25C10.5815 1.5 10.8995 1.6317 11.1339 1.86612C11.3683 2.10054 11.5 2.41848 11.5 2.75V4L9 1.5ZM9 11.5H10.25C10.5815 11.5 10.8995 11.3683 11.1339 11.1339C11.3683 10.8995 11.5 10.5815 11.5 10.25V9L9 11.5ZM6.5 6.8125L9 5.25L6.5 6.8125ZM4 5.25L6.5 6.8125V9.625L9 8.0625V5.25L6.5 3.6875L4 5.25Z" stroke="#111111" stroke-width="2" stroke-linecap="round" stroke-linejoin="round"/>
</svg>
