<svg width="15" height="19" viewBox="0 0 15 19" fill="none" xmlns="http://www.w3.org/2000/svg">
<path d="M11.875 4.19402C14.3675 7.29297 14.3825 12.5086 11.875 15.5872M1.25 12.2987V7.48178C1.25 7.01465 1.53 6.63542 1.875 6.63542H4.11625C4.19896 6.63504 4.28075 6.61285 4.35669 6.57019C4.43264 6.52753 4.50116 6.46529 4.55813 6.38721L6.43313 3.63005C6.82688 3.0962 7.5 3.47461 7.5 4.22901V15.5523C7.5 16.3123 6.81875 16.6875 6.4275 16.1431L4.55875 13.4014C4.50162 13.3211 4.43241 13.2569 4.35542 13.213C4.27843 13.169 4.19532 13.1462 4.11125 13.1458H1.875C1.53 13.1458 1.25 12.7666 1.25 12.2987ZM10 7.04232C10.8331 8.48926 10.8331 11.292 10 12.7389V7.04232Z" stroke="white" stroke-width="5" stroke-linecap="round" stroke-linejoin="round"/>
</svg>
